<?xml version="1.0" encoding="UTF-8"?>
<svg xmlns="http://www.w3.org/2000/svg" viewBox="0 0 1200 630" role="img" aria-label="Canvas 2D 与 WebGL 渲染性能指南">
  <defs>
    <linearGradient id="bg" x1="0%" y1="0%" x2="100%" y2="100%">
      <stop offset="0%" stop-color="#ec4899"/>
      <stop offset="100%" stop-color="#831843"/>
    </linearGradient>
    <linearGradient id="fade" x1="0%" y1="0%" x2="100%" y2="0%">
      <stop offset="0%" stop-color="#ec4899" stop-opacity="0.95"/>
      <stop offset="55%" stop-color="#ec4899" stop-opacity="0.35"/>
      <stop offset="100%" stop-color="#831843" stop-opacity="0"/>
    </linearGradient>
  </defs>
  <rect width="1200" height="630" fill="url(#bg)"/>
  <rect width="1200" height="630" fill="url(#fade)"/>
  <circle cx="150" cy="120" r="180" fill="rgba(255,255,255,0.05)"/>
  <circle cx="1180" cy="560" r="220" fill="rgba(0,0,0,0.1)"/>
  
        <g stroke="rgba(255,255,255,0.12)" stroke-width="2">
          <line x1="820" y1="100" x2="820" y2="300"/><line x1="860" y1="100" x2="860" y2="300"/><line x1="900" y1="100" x2="900" y2="300"/><line x1="940" y1="100" x2="940" y2="300"/><line x1="980" y1="100" x2="980" y2="300"/><line x1="1020" y1="100" x2="1020" y2="300"/>
          <line x1="820" y1="100" x2="1060" y2="100"/><line x1="820" y1="140" x2="1060" y2="140"/><line x1="820" y1="180" x2="1060" y2="180"/><line x1="820" y1="220" x2="1060" y2="220"/><line x1="820" y1="260" x2="1060" y2="260"/><line x1="820" y1="300" x2="1060" y2="300"/>
        </g>
</svg>