<?xml version="1.0" encoding="UTF-8"?>
<svg xmlns="http://www.w3.org/2000/svg" viewBox="0 0 1200 630" role="img" aria-label="前端权限系统如何设计">
  <defs>
    <linearGradient id="bg" x1="0%" y1="0%" x2="100%" y2="100%">
      <stop offset="0%" stop-color="#14b8a6"/>
      <stop offset="100%" stop-color="#134e4a"/>
    </linearGradient>
    <linearGradient id="fade" x1="0%" y1="0%" x2="100%" y2="0%">
      <stop offset="0%" stop-color="#14b8a6" stop-opacity="0.95"/>
      <stop offset="55%" stop-color="#14b8a6" stop-opacity="0.35"/>
      <stop offset="100%" stop-color="#134e4a" stop-opacity="0"/>
    </linearGradient>
  </defs>
  <rect width="1200" height="630" fill="url(#bg)"/>
  <rect width="1200" height="630" fill="url(#fade)"/>
  <circle cx="150" cy="120" r="180" fill="rgba(255,255,255,0.05)"/>
  <circle cx="1180" cy="560" r="220" fill="rgba(0,0,0,0.1)"/>
  
        <g fill="rgba(255,255,255,0.14)">
          <rect x="880" y="130" width="48" height="48" rx="10"/><rect x="950" y="130" width="48" height="48" rx="10"/><rect x="1020" y="130" width="48" height="48" rx="10"/><rect x="880" y="200" width="48" height="48" rx="10"/><rect x="950" y="200" width="48" height="48" rx="10"/><rect x="1020" y="200" width="48" height="48" rx="10"/><rect x="880" y="270" width="48" height="48" rx="10"/><rect x="950" y="270" width="48" height="48" rx="10"/><rect x="1020" y="270" width="48" height="48" rx="10"/>
        </g>
</svg>